<svg xmlns="http://www.w3.org/2000/svg" width="40" height="40" viewBox="0 0 40 40">
  <defs>
    <radialGradient id="space" cx="50%" cy="42%" r="80%">
      <stop offset="0%" stop-color="#2B2560"/>
      <stop offset="55%" stop-color="#151837"/>
      <stop offset="100%" stop-color="#08090F"/>
    </radialGradient>
    <linearGradient id="flare" x1="0%" y1="0%" x2="100%" y2="100%">
      <stop offset="0%" stop-color="#5CC8FF"/>
      <stop offset="50%" stop-color="#FF4D97"/>
      <stop offset="100%" stop-color="#FFD166"/>
    </linearGradient>
    <radialGradient id="halo" cx="50%" cy="50%" r="50%">
      <stop offset="0%" stop-color="#FF4D97" stop-opacity="0.55"/>
      <stop offset="60%" stop-color="#A66BFF" stop-opacity="0.18"/>
      <stop offset="100%" stop-color="#A66BFF" stop-opacity="0"/>
    </radialGradient>
    <radialGradient id="core" cx="50%" cy="50%" r="50%">
      <stop offset="0%" stop-color="#FFFFFF"/>
      <stop offset="55%" stop-color="#FFE3F0"/>
      <stop offset="100%" stop-color="#FF4D97" stop-opacity="0"/>
    </radialGradient>
  </defs>
  <rect width="40" height="40" rx="9" fill="url(#space)"/>
  <circle cx="20" cy="19" r="14" fill="url(#halo)"/>
  <circle cx="20" cy="19" r="9.5" fill="none" stroke="url(#flare)" stroke-opacity="0.4" stroke-width="1"/>
  <path d="M20 5.5 L22.4 16.6 L33.5 19 L22.4 21.4 L20 32.5 L17.6 21.4 L6.5 19 L17.6 16.6 Z" fill="url(#flare)"/>
  <path d="M27.8 11.2 L26 15 L22.2 16.8 L26 18.6 L27.8 22.4 L29.6 18.6 L33.4 16.8 L29.6 15 Z" fill="#5CC8FF" opacity="0.35"/>
  <circle cx="20" cy="19" r="4.6" fill="url(#core)"/>
  <circle cx="31.5" cy="8" r="1.1" fill="#5CC8FF"/>
  <circle cx="8" cy="30" r="0.9" fill="#FF4D97"/>
  <circle cx="33" cy="31" r="0.8" fill="#FFD166"/>
  <circle cx="9.5" cy="8.5" r="0.7" fill="#E4E6F1"/>
  <circle cx="14" cy="33.5" r="0.6" fill="#A66BFF"/>
</svg>
